<svg viewBox="0 0 96 30" xmlns="http://www.w3.org/2000/svg" xmlns:xlink="http://www.w3.org/1999/xlink"><title>Mixlr</title><g id="Mixlr-/-Logo-/-Small"><path d="M16.87788,14.99997 C16.87788,16.03716 16.0371,16.87794 14.99988,16.87794 C13.96263,16.87794 13.12185,16.03716 13.12185,14.99997 C13.12185,13.96278 13.96263,13.12194 14.99988,13.12194 C16.0371,13.12194 16.87788,13.96278 16.87788,14.99997 Z" opacity="0.4"></path><path d="M16.87788,1.878066 C16.87788,2.915259 16.0371,3.75612 14.99988,3.75612 C13.96263,3.75612 13.12185,2.915259 13.12185,1.878066 C13.12185,0.840873 13.96263,2.288817e-05 14.99988,2.288817e-05 C16.0371,2.288817e-05 16.87788,0.840873 16.87788,1.878066 Z" opacity="0.4"></path><path d="M16.87788,8.439 C16.87788,9.47619 16.0371,10.31703 14.99988,10.31703 C13.96263,10.31703 13.12185,9.47619 13.12185,8.439 C13.12185,7.40178 13.96263,6.56094 14.99988,6.56094 C16.0371,6.56094 16.87788,7.40178 16.87788,8.439 Z"></path><path d="M10.0653,2.69703 C10.58391,3.59532 10.2762,4.74387 9.37791,5.26254 C8.47965,5.78106 7.33101,5.47335 6.81243,4.57506 C6.29382,3.67686 6.60165,2.528235 7.49982,2.009637 C8.39811,1.491039 9.54672,1.798812 10.0653,2.69703 Z"></path><path d="M4.57494,6.81258 C5.4732,7.33116 5.78091,8.4798 5.26233,9.37806 C4.74372,10.27629 3.59511,10.58406 2.696889,10.06545 C1.798608,9.54687 1.490835,8.39826 2.009433,7.50003 C2.528091,6.60174 3.67665,6.29397 4.57494,6.81258 Z"></path><path d="M1.877982,13.12194 C2.915175,13.12194 3.75603,13.96278 3.75603,14.99997 C3.75603,16.03716 2.915175,16.87794 1.877982,16.87794 C0.840786,16.87794 0,16.03716 0,14.99997 C0,13.96278 0.840786,13.12194 1.877982,13.12194 Z"></path><path d="M2.696841,19.93452 C3.59511,19.41594 4.74369,19.72362 5.26233,20.62191 C5.78094,21.5202 5.47317,22.66875 4.57488,23.18742 C3.67668,23.706 2.528046,23.39817 2.009448,22.49997 C1.490853,21.60174 1.798563,20.45313 2.696841,19.93452 Z"></path><path d="M6.8127,25.42482 C7.33128,24.52653 8.47992,24.21882 9.37818,24.73743 C10.27641,25.25601 10.58418,26.40465 10.06557,27.30285 C9.54699,28.20108 8.39838,28.50891 7.50009,27.9903 C6.60186,27.47166 6.29409,26.32308 6.8127,25.42482 Z"></path><path d="M13.12185,28.12182 C13.12185,27.08466 13.96263,26.24382 14.99982,26.24382 C16.0371,26.24382 16.87788,27.08466 16.87788,28.12182 C16.87788,29.15901 16.0371,29.99985 14.99982,29.99985 C13.96263,29.99985 13.12185,29.15901 13.12185,28.12182 Z"></path><path d="M19.93422,27.30288 C19.41564,26.40459 19.72335,25.25604 20.62161,24.73737 C21.5199,24.21876 22.66851,24.52653 23.18712,25.42482 C23.70573,26.32305 23.39787,27.47166 22.49973,27.99027 C21.60144,28.50885 20.45283,28.20108 19.93422,27.30288 Z"></path><path d="M25.42461,23.18739 C24.52635,22.66881 24.21864,21.52017 24.73722,20.62191 C25.25583,19.72368 26.40444,19.41591 27.30267,19.93452 C28.20096,20.45316 28.50873,21.60174 27.99012,22.49994 C27.47145,23.39823 26.3229,23.706 25.42461,23.18739 Z"></path><path d="M28.12203,16.87794 C27.08484,16.87794 26.244,16.03716 26.244,14.99997 C26.244,13.96272 27.08484,13.12194 28.12203,13.12194 C29.15922,13.12194 30,13.96272 30,14.99997 C30,16.03716 29.15922,16.87794 28.12203,16.87794 Z" opacity="0.4"></path><path d="M27.3027,10.06542 C26.40444,10.58403 25.25586,10.27626 24.73722,9.37803 C24.21861,8.47974 24.52638,7.33113 25.42467,6.81255 C26.3229,6.29394 27.47151,6.60171 27.99009,7.5 C28.5087,8.3982 28.20099,9.54684 27.3027,10.06542 Z" opacity="0.4"></path><path d="M23.18712,4.57506 C22.66851,5.47335 21.5199,5.78106 20.62161,5.26254 C19.72338,4.74387 19.41561,3.59532 19.93422,2.69703 C20.4528,1.798812 21.60144,1.491039 22.4997,2.009637 C23.39793,2.528235 23.7057,3.67686 23.18712,4.57506 Z" opacity="0.4"></path><path d="M10.25706,10.09308 C11.15529,10.61169 11.46306,11.76024 10.94445,12.65853 C10.42584,13.55679 9.27723,13.8645 8.37903,13.34592 C7.48074,12.82731 7.17297,11.67876 7.69155,10.78047 C8.21022,9.88218 9.35877,9.57447 10.25706,10.09308 Z"></path><path d="M8.37897,16.65399 C9.27726,16.13541 10.42581,16.44312 10.94448,17.34138 C11.46306,18.23967 11.15523,19.38828 10.257,19.90689 C9.3588,20.42547 8.21016,20.1177 7.69158,19.2195 C7.17297,18.32121 7.48068,17.1726 8.37897,16.65399 Z"></path><path d="M13.12185,21.56091 C13.12185,20.52372 13.96263,19.68294 14.99982,19.68294 C16.0371,19.68294 16.87788,20.52372 16.87788,21.56091 C16.87788,22.59813 16.0371,23.43897 14.99982,23.43897 C13.96263,23.43897 13.12185,22.59813 13.12185,21.56091 Z"></path><path d="M19.7427,19.90683 C18.84447,19.38825 18.5367,18.23961 19.05531,17.34135 C19.57392,16.44312 20.72253,16.13535 21.62076,16.65396 C22.51902,17.17254 22.82679,18.32118 22.30821,19.21944 C21.78954,20.11773 20.64099,20.42544 19.7427,19.90683 Z"></path><path d="M21.62079,13.34592 C20.7225,13.8645 19.57395,13.55679 19.05528,12.65853 C18.5367,11.76024 18.84453,10.61169 19.74276,10.09308 C20.64096,9.57447 21.7896,9.88218 22.30818,10.78047 C22.82679,11.67876 22.51908,12.82731 21.62079,13.34592 Z"></path></g><g id="Mixlr-/-Logo-/-Text" transform="translate(39.900000, 5.999977)"><path d="M47.8692,6.43119 L51.4311,6.43119 L51.4311,8.29497 L51.4926,8.29497 C52.2588,6.88488 53.2581,6.14304 54.8277,6.14304 C55.2261,6.14304 55.686,6.1737 55.9986,6.26568 L55.9986,9.52725 C55.5144,9.38625 54.9993,9.28203 54.4842,9.28203 C51.7746,9.28203 51.4311,10.85763 51.4311,13.1628 L51.4311,18 L47.8692,18 L47.8692,6.43119 Z"></path><polygon points="45.288 0 41.7261 0 41.7261 17.99388 45.288 17.99388"></polygon><polygon points="30.4086 11.80791 26.55855 6.43119 30.7521 6.43119 32.8059 9.5763 34.7799 6.43119 38.7405 6.43119 35.0067 11.80791 39.4578 18 35.2335 18 32.6955 14.14374 30.0102 18 25.81674 18"></polygon><path d="M20.05992,6.43119 L23.5974,6.43119 L23.5974,18 L20.05992,18 L20.05992,6.43119 Z M21.83172,0.717306 C22.9782,0.717306 23.91621,1.643055 23.91621,2.783382 C23.91621,3.9237 22.9782,4.86171 21.83172,4.86171 C20.69142,4.86171 19.7533502,3.9237 19.7533502,2.783382 C19.74726,1.643055 20.68527,0.717306 21.83172,0.717306 Z"></path><polygon points="8.33175 8.80995 0 1.011579 0 18 3.93597 18 3.93597 9.93189 8.24592 13.92303 12.64167 9.93801 12.64167 18 16.57764 18 16.57764 0.987057"></polygon></g></svg>