<svg xmlns="http://www.w3.org/2000/svg" aria-label="" aria-hidden="true" class="icon" fill="currentColor" height="12" role="img" viewBox="0 0 24 24" width="12"><path d="M24 13.0811C23.7898 15.3555 22.9362 17.523 21.5391 19.3301C20.142 21.1371 18.2591 22.5088 16.1109 23.2848C13.9626 24.0608 11.6378 24.2089 9.40838 23.7118C7.17901 23.2147 5.13731 22.0929 3.52219 20.4778C1.90708 18.8627 0.785339 16.821 0.288242 14.5916C-0.208855 12.3622 -0.0607536 10.0374 0.715218 7.88913C1.49119 5.74086 2.86293 3.85801 4.66994 2.46089C6.47695 1.06378 8.64449 0.210186 10.9189 0C9.58731 1.80151 8.94653 4.02113 9.11313 6.25516C9.27973 8.48918 10.2426 10.5892 11.8267 12.1733C13.4108 13.7574 15.5108 14.7203 17.7448 14.8869C19.9789 15.0535 22.1985 14.4127 24 13.0811Z"></path></svg>