<svg class="artwork-fallback" preserveAspectRatio="xMinYMin slice" viewBox="0 0 1600 1200" xmlns="http://www.w3.org/2000/svg"><rect opacity="0.3" width="1600" height="1200"></rect><g clip-path="url(#a)" fill-rule="evenodd" clip-rule="evenodd"><path opacity="0.2" d="M143.091 223.179c-2.812-9.035 2.233-18.639 11.268-21.451l294.471-91.637c9.036-2.812 18.639 2.233 21.451 11.268l66.183 212.674c2.811 9.035-2.234 18.639-11.269 21.45l-40.899 12.728-212.673 66.182-40.899 12.728c-9.035 2.811-18.639-2.234-21.45-11.269l-66.183-212.673Zm134.166 200.489 196.314-61.092-11.455-36.808a4.284 4.284 0 0 0-5.362-2.818L268.62 381.497a4.283 4.283 0 0 0-2.818 5.362l11.455 36.809Zm204.494-63.637-11.455-36.809c-2.109-6.776-9.311-10.56-16.088-8.451l-188.134 58.546c-6.776 2.109-10.56 9.311-8.451 16.088l11.454 36.809-40.898 12.727a8.568 8.568 0 0 1-10.726-5.634l-66.182-212.674a8.566 8.566 0 0 1 5.634-10.725l294.471-91.637a8.566 8.566 0 0 1 10.725 5.634l66.183 212.673a8.568 8.568 0 0 1-5.634 10.726l-40.899 12.727ZM247.068 240.167c-22.587 7.029-35.2 31.039-28.171 53.626 7.029 22.588 31.038 35.201 53.626 28.172 22.588-7.03 35.201-31.039 28.172-53.627-7.03-22.587-31.039-35.2-53.627-28.171Zm-36.351 56.172c-8.435-27.106 6.701-55.917 33.806-64.352 27.105-8.435 55.916 6.701 64.351 33.806 8.435 27.105-6.7 55.916-33.805 64.351-27.106 8.435-55.917-6.7-64.352-33.805Zm155.416-48.364c-7.03-22.588 5.583-46.597 28.171-53.627 22.588-7.029 46.597 5.584 53.626 28.172 7.029 22.587-5.584 46.597-28.171 53.626-22.588 7.029-46.597-5.584-53.626-28.171Zm25.625-61.806c-27.105 8.435-42.24 37.246-33.805 64.351 8.435 27.105 37.246 42.241 64.351 33.806 27.105-8.435 42.241-37.247 33.806-64.352-8.435-27.105-37.246-42.24-64.352-33.805Zm-55.985 21.908-32.719 10.182a4.283 4.283 0 1 0 2.545 8.18l32.719-10.182a4.283 4.283 0 0 0-2.545-8.18Z"></path><path opacity="0.3" d="M1024.92-24.18c2.24-6.528 9.35-10 15.88-7.755l212.78 73.18c6.53 2.244 10 9.357 7.76 15.886l-52.86 153.671c-2.24 6.529-9.35 10.001-15.88 7.756l-212.779-73.179c-6.529-2.245-10.001-9.358-7.756-15.886l52.855-153.672Zm13.85-1.844a6.247 6.247 0 0 0-7.94 3.878l-52.854 153.672a6.25 6.25 0 0 0 3.878 7.943l29.556 10.164 9.14-26.598c1.69-4.896 7.02-7.5 11.92-5.816l135.94 46.753c4.9 1.684 7.5 7.018 5.82 11.915l-9.15 26.597 29.55 10.163a6.247 6.247 0 0 0 7.94-3.877l52.85-153.672a6.244 6.244 0 0 0-3.87-7.944l-212.78-73.178Zm39.98 56.713c-16.32-5.614-34.1 3.067-39.71 19.388-5.62 16.321 3.06 34.103 19.38 39.716 16.33 5.613 34.11-3.067 39.72-19.389 5.61-16.32-3.07-34.102-19.39-39.715Zm-45.62 17.355c6.73-19.585 28.07-30.002 47.65-23.266 19.59 6.736 30.01 28.074 23.27 47.66-6.74 19.585-28.07 30.001-47.66 23.266-19.58-6.736-30-28.074-23.26-47.66Zm112.29 38.622c5.62-16.321 23.4-25.002 39.72-19.388 16.32 5.613 25 23.394 19.39 39.716-5.61 16.321-23.4 25.002-39.72 19.388-16.32-5.613-25-23.394-19.39-39.716Zm41.75-25.299c-19.58-6.736-40.92 3.681-47.66 23.267-6.73 19.585 3.68 40.923 23.27 47.659 19.59 6.736 40.92-3.681 47.66-23.267 6.74-19.585-3.68-40.923-23.27-47.659Zm-42.39-11.274-23.64-8.13a3.124 3.124 0 1 0-2.03 5.91l23.64 8.13a3.124 3.124 0 0 0 3.97-1.938 3.12 3.12 0 0 0-1.94-3.972Zm-118.32 74.975a3.135 3.135 0 0 1 3.98-1.939l135.94 46.753c1.63.562 2.5 2.34 1.93 3.972l-9.14 26.597-141.85-48.786 9.14-26.597Z"></path><path opacity="0.2" d="M857.117 429.032c-1.169-5.348 2.218-10.631 7.566-11.8l174.287-38.114a9.91 9.91 0 0 1 11.8 7.565l27.53 125.874c1.17 5.348-2.22 10.631-7.57 11.8l-174.285 38.115c-5.348 1.169-10.631-2.218-11.8-7.566l-27.528-125.874Zm8.624-6.959a4.956 4.956 0 0 0-3.782 5.9l27.527 125.875a4.955 4.955 0 0 0 5.9 3.782l24.207-5.293-4.765-21.786a7.435 7.435 0 0 1 5.674-8.851l111.348-24.35c4.01-.878 7.98 1.663 8.85 5.673l4.77 21.787 24.2-5.294a4.96 4.96 0 0 0 3.79-5.9l-27.53-125.875a4.96 4.96 0 0 0-5.9-3.782l-174.289 38.114Zm50.454 21.94c-13.369 2.924-21.836 16.132-18.913 29.5 2.924 13.369 16.131 21.837 29.5 18.913 13.369-2.923 21.837-16.131 18.913-29.5-2.923-13.369-16.131-21.836-29.5-18.913Zm-23.754 30.559c-3.509-16.043 6.653-31.892 22.695-35.4 16.043-3.508 31.892 6.653 35.401 22.695 3.508 16.043-6.653 31.892-22.696 35.401-16.043 3.508-31.892-6.653-35.4-22.696Zm91.985-20.116c-2.924-13.369 5.544-26.577 18.914-29.5 13.37-2.924 26.58 5.544 29.5 18.913 2.92 13.369-5.54 26.576-18.91 29.5-13.37 2.924-26.58-5.544-29.504-18.913Zm17.854-34.341c-16.042 3.508-26.204 19.357-22.695 35.4 3.508 16.043 19.357 26.204 35.405 22.695 16.04-3.508 26.2-19.357 22.69-35.4-3.51-16.043-19.36-26.204-35.4-22.695Zm-33.36 9.831-19.365 4.235a2.477 2.477 0 1 0 1.059 4.842l19.365-4.235a2.477 2.477 0 1 0-1.059-4.842Zm-49.25 99.546a2.477 2.477 0 0 1 1.891-2.95l111.349-24.351a2.475 2.475 0 0 1 2.95 1.891l4.77 21.786-116.196 25.41-4.764-21.786Z"></path><path opacity="0.2" d="M-52.632 589.269c.922-6.224 6.714-10.522 12.938-9.6l202.834 30.044c6.224.922 10.522 6.715 9.6 12.938l-21.699 146.492c-.922 6.224-6.714 10.521-12.938 9.6l-202.834-30.045c-6.224-.922-10.522-6.714-9.6-12.938l21.699-146.491Zm12.103-3.966a5.697 5.697 0 0 0-6.469 4.8l-21.699 146.492a5.696 5.696 0 0 0 4.8 6.469l28.172 4.173 3.755-25.355a8.543 8.543 0 0 1 9.704-7.199l129.589 19.195a8.543 8.543 0 0 1 7.199 9.703l-3.755 25.354 28.171 4.173a5.696 5.696 0 0 0 6.469-4.8l21.699-146.491a5.696 5.696 0 0 0-4.8-6.469l-202.835-30.045Zm45.284 44.135c-15.559-2.305-30.04 8.439-32.344 23.998-2.305 15.559 8.44 30.04 23.998 32.345 15.559 2.304 30.04-8.44 32.345-23.999 2.304-15.559-8.44-30.04-23.999-32.344Zm-37.979 23.164c2.766-18.671 20.143-31.564 38.814-28.799 18.67 2.766 31.564 20.143 28.798 38.813-2.765 18.671-20.143 31.564-38.813 28.799-18.67-2.766-31.564-20.143-28.799-38.813Zm107.052 15.856c2.305-15.559 16.786-26.303 32.345-23.999 15.558 2.305 26.303 16.786 23.998 32.345-2.304 15.558-16.785 26.303-32.344 23.998-15.559-2.304-26.303-16.785-23.999-32.344Zm33.179-29.633c-18.67-2.765-36.047 10.128-38.813 28.799-2.766 18.67 10.128 36.047 28.798 38.813 18.671 2.765 36.048-10.128 38.814-28.799 2.765-18.67-10.128-36.047-28.799-38.813Zm-39.857-3.024-22.538-3.339a2.848 2.848 0 0 0-.834 5.635l22.537 3.338a2.848 2.848 0 0 0 .835-5.634Zm-93.485 86.916a2.848 2.848 0 0 1 3.234-2.4l129.589 19.195a2.848 2.848 0 0 1 2.4 3.234l-3.756 25.355-135.223-20.03 3.756-25.354ZM417.817 596.911c2.241-10.444 12.525-17.094 22.969-14.853l340.4 73.05c10.445 2.241 17.095 12.525 14.853 22.97l-52.758 245.844c-2.241 10.445-12.525 17.095-22.969 14.853l-340.401-73.05c-10.444-2.241-17.094-12.525-14.853-22.969l52.759-245.845Zm20.94-5.397c-5.222-1.121-10.364 2.204-11.485 7.426l-52.758 245.845c-1.121 5.222 2.204 10.364 7.426 11.485l47.279 10.146 9.131-42.551c1.681-7.833 9.394-12.82 17.227-11.139l217.478 46.671c7.833 1.681 12.821 9.393 11.14 17.227l-9.132 42.55 47.278 10.146c5.222 1.12 10.364-2.205 11.484-7.427l52.759-245.845c1.12-5.222-2.205-10.364-7.427-11.484l-340.4-73.05Zm71.91 79.723c-26.11-5.603-51.82 11.022-57.423 37.133-5.604 26.11 11.021 51.82 37.132 57.423 26.111 5.604 51.82-11.021 57.423-37.132 5.604-26.111-11.021-51.82-37.132-57.424Zm-66.879 35.103c6.724-31.333 37.576-51.282 68.909-44.558 31.333 6.724 51.282 37.575 44.558 68.908-6.724 31.333-37.575 51.283-68.908 44.559-31.333-6.724-51.283-37.576-44.559-68.909Zm179.656 38.554c5.604-26.111 31.313-42.735 57.424-37.132 26.111 5.604 42.735 31.313 37.132 57.424-5.603 26.111-31.313 42.735-57.424 37.132-26.11-5.603-42.735-31.313-37.132-57.424Zm59.453-46.587c-31.333-6.724-62.184 13.225-68.908 44.558-6.724 31.333 13.225 62.184 44.558 68.909 31.333 6.724 62.185-13.226 68.909-44.559 6.724-31.333-13.226-62.184-44.559-68.908Zm-67.203-9.477-37.823-8.116a4.835 4.835 0 1 0-2.029 9.455l37.822 8.117a4.837 4.837 0 0 0 2.03-9.456ZM447.805 825.895a4.837 4.837 0 0 1 5.743-3.714l217.478 46.671a4.835 4.835 0 0 1 3.713 5.742l-9.131 42.55-226.934-48.699 9.131-42.55Z"></path><path opacity="0.3" d="M908.977 959.511c-3.61-12.251 3.395-25.108 15.645-28.718l399.268-117.659c12.25-3.61 25.11 3.394 28.72 15.645l84.98 288.361c3.61 12.25-3.4 25.11-15.65 28.72l-399.27 117.66c-12.25 3.61-25.107-3.4-28.717-15.65l-84.976-288.359Zm18.914-17.627c-6.126 1.805-9.628 8.233-7.823 14.359l84.972 288.357c1.81 6.13 8.24 9.63 14.36 7.83l55.46-16.35-14.71-49.9c-2.71-9.19 2.55-18.84 11.73-21.54l255.09-75.17c9.19-2.71 18.83 2.54 21.54 11.73l14.71 49.91 55.45-16.34c6.13-1.81 9.63-8.24 7.82-14.36l-84.97-288.363c-1.81-6.125-8.23-9.627-14.36-7.822L927.891 941.884Zm121.059 42.675c-30.62 9.025-48.14 41.171-39.11 71.791 9.02 30.63 41.17 48.14 71.79 39.12 30.63-9.03 48.14-41.17 39.12-71.8-9.03-30.625-41.17-48.136-71.8-39.111Zm-50.201 75.061c-10.831-36.75 10.181-75.322 46.931-86.152 36.76-10.83 75.33 10.184 86.16 46.932 10.83 36.76-10.19 75.33-46.94 86.16-36.75 10.83-75.32-10.19-86.151-46.94Zm210.721-62.095c-9.02-30.626 8.49-62.77 39.12-71.796 30.62-9.025 62.77 8.487 71.79 39.113 9.03 30.626-8.48 62.768-39.11 71.798-30.63 9.02-62.77-8.49-71.8-39.115Zm35.85-82.886c-36.75 10.83-57.77 49.403-46.94 86.151 10.83 36.75 49.41 57.77 86.16 46.94 36.75-10.83 57.76-49.405 46.93-86.156-10.83-36.752-49.4-57.766-86.15-46.935Zm-76 28.423-44.37 13.073a5.782 5.782 0 0 0 3.27 11.091l44.37-13.073a5.785 5.785 0 0 0 3.91-7.18c-.91-3.062-4.12-4.814-7.18-3.911Zm-98.08 239.848a5.78 5.78 0 0 1 3.91-7.18l255.09-75.17c3.06-.91 6.28.85 7.18 3.91l14.71 49.91-266.18 78.44-14.71-49.91Z"></path><path opacity="0.2" d="M1455.01 327.394c3-8.502 12.32-12.963 20.82-9.965l277.09 97.725c8.51 2.998 12.97 12.321 9.97 20.823l-70.58 200.122c-3 8.502-12.32 12.963-20.82 9.965l-277.1-97.725c-8.5-2.998-12.96-12.321-9.96-20.823l70.58-200.122Zm18.11-2.268c-4.25-1.499-8.92.732-10.42 4.983l-70.57 200.122a8.16 8.16 0 0 0 4.98 10.411l38.48 13.573 12.22-34.636c2.25-6.377 9.24-9.723 15.62-7.474l177.03 62.435c6.37 2.249 9.72 9.241 7.47 15.618l-12.21 34.636 38.48 13.573a8.161 8.161 0 0 0 10.41-4.983l70.58-200.122a8.16 8.16 0 0 0-4.98-10.411l-277.09-97.725Zm51.63 74.462c-21.26-7.496-44.57 3.657-52.06 24.912-7.5 21.255 3.65 44.562 24.91 52.058 21.25 7.496 44.56-3.658 52.06-24.912 7.49-21.255-3.66-44.562-24.91-52.058Zm-59.76 22.197c9-25.505 36.96-38.889 62.47-29.894 25.51 8.995 38.89 36.964 29.89 62.469-8.99 25.506-36.96 38.89-62.47 29.895-25.5-8.995-38.89-36.964-29.89-62.47Zm146.24 51.577c7.5-21.254 30.81-32.408 52.06-24.912 21.26 7.496 32.41 30.803 24.91 52.058-7.49 21.255-30.8 32.408-52.05 24.912-21.26-7.496-32.41-30.803-24.92-52.058Zm54.78-32.609c-25.51-8.995-53.48 4.389-62.47 29.895-9 25.505 4.39 53.474 29.89 62.469 25.51 8.996 53.48-4.389 62.47-29.894 9-25.506-4.39-53.475-29.89-62.47Zm-55.24-15.154-30.79-10.858a4.078 4.078 0 0 0-5.2 2.491 4.076 4.076 0 0 0 2.49 5.206l30.79 10.858c2.12.75 4.45-.365 5.2-2.491a4.077 4.077 0 0 0-2.49-5.206Zm-155.26 96.694a4.077 4.077 0 0 1 5.2-2.491l177.03 62.435a4.077 4.077 0 0 1 2.49 5.206l-12.21 34.637-184.73-65.15 12.22-34.637Z"></path><path opacity="0.1" d="M102.996 1104.22c-.55-9 6.299-16.74 15.297-17.29L411.565 1069c8.999-.55 16.739 6.29 17.289 15.29l12.95 211.81c.55 9-6.299 16.74-15.297 17.29l-293.272 17.93c-8.999.55-16.739-6.3-17.29-15.3l-12.949-211.8Zm15.795-9.15c-4.499.28-7.924 4.15-7.648 8.65l12.949 211.8c.275 4.5 4.145 7.93 8.644 7.65l40.733-2.49-2.241-36.66c-.412-6.74 4.724-12.55 11.473-12.96l187.368-11.46c6.749-.41 12.554 4.73 12.967 11.47l2.241 36.66 40.732-2.49c4.499-.27 7.923-4.14 7.648-8.64l-12.949-211.81c-.275-4.5-4.145-7.92-8.645-7.65l-293.272 17.93Zm76.556 48.47c-22.496 1.38-39.618 20.73-38.242 43.22 1.375 22.5 20.726 39.62 43.222 38.25 22.496-1.38 39.618-20.73 38.242-43.23-1.375-22.49-20.726-39.61-43.222-38.24Zm-46.389 43.72c-1.65-26.99 18.896-50.21 45.891-51.86 26.995-1.65 50.216 18.89 51.867 45.89 1.65 26.99-18.896 50.21-45.891 51.86-26.995 1.65-50.216-18.89-51.867-45.89Zm154.783-9.46c-1.375-22.5 15.746-41.85 38.242-43.22 22.496-1.38 41.847 15.74 43.223 38.24 1.375 22.49-15.746 41.85-38.242 43.22-22.496 1.38-41.847-15.74-43.223-38.24Zm37.744-51.37c-26.995 1.65-47.541 24.87-45.89 51.87 1.65 26.99 24.872 47.54 51.867 45.89 26.995-1.65 47.541-24.87 45.89-51.87-1.65-26.99-24.872-47.54-51.867-45.89Zm-56.776 7.56-32.586 1.99a4.083 4.083 0 0 0 .498 8.15l32.586-1.99a4.088 4.088 0 0 0 3.824-4.33 4.075 4.075 0 0 0-4.322-3.82Zm-105.334 149.54a4.088 4.088 0 0 1 3.824-4.33l187.368-11.45a4.076 4.076 0 0 1 4.323 3.82l2.241 36.66-195.515 11.95-2.241-36.65Z"></path></g></svg>