<svg xmlns="http://www.w3.org/2000/svg" aria-label="Show search" aria-hidden="true" class="icon" fill="currentColor" height="20" role="img" viewBox="0 0 24 24" width="20"><path d="M10,0 C15.5228475,0 20,4.4771525 20,10 C20,12.4008955 19.1538988,14.6041735 17.7436056,16.3279248 L23.7071068,22.2928932 C24.0976311,22.6834175 24.0976311,23.3165825 23.7071068,23.7071068 C23.3466228,24.0675907 22.7793918,24.0953203 22.3871006,23.7902954 L22.2928932,23.7071068 L16.3279248,17.7436056 C14.6041735,19.1538988 12.4008955,20 10,20 C4.4771525,20 0,15.5228475 0,10 C0,4.4771525 4.4771525,0 10,0 Z M10,2 C5.581722,2 2,5.581722 2,10 C2,14.418278 5.581722,18 10,18 C14.418278,18 18,14.418278 18,10 C18,5.581722 14.418278,2 10,2 Z"></path></svg>