<svg xmlns="http://www.w3.org/2000/svg" aria-label="Follow" aria-hidden="true" class="icon" fill="currentColor" height="24" role="img" viewBox="0 0 24 24" width="24"><path d="M10 14C12.7614 14 15 16.2386 15 19V21C15 21.5523 14.5523 22 14 22H1C0.447715 22 0 21.5523 0 21V19C0 16.2386 2.23858 14 5 14H10ZM10 16H5C3.34315 16 2 17.3431 2 19V20H13V19C13 17.4023 11.7511 16.0963 10.1763 16.0051L10 16ZM19 7C19.5523 7 20 7.44772 20 8V11H23C23.5523 11 24 11.4477 24 12C24 12.5523 23.5523 13 23 13H20V16C20 16.5523 19.5523 17 19 17C18.4477 17 18 16.5523 18 16V13H15C14.4477 13 14 12.5523 14 12C14 11.4477 14.4477 11 15 11H18V8C18 7.44772 18.4477 7 19 7ZM7.5 2C10.5376 2 13 4.46243 13 7.5C13 10.5376 10.5376 13 7.5 13C4.46243 13 2 10.5376 2 7.5C2 4.46243 4.46243 2 7.5 2ZM7.5 4C5.567 4 4 5.567 4 7.5C4 9.433 5.567 11 7.5 11C9.433 11 11 9.433 11 7.5C11 5.567 9.433 4 7.5 4Z"></path></svg>